<svg width="20" height="20" viewBox="0 0 20 20" fill="none" xmlns="http://www.w3.org/2000/svg">
<path fill-rule="evenodd" clip-rule="evenodd" d="M0 4C0 3.44772 0.447715 3 1 3H19C19.5523 3 20 3.44772 20 4C20 4.55228 19.5523 5 19 5H1C0.447715 5 0 4.55228 0 4ZM0 8C0 7.44772 0.447715 7 1 7H15C15.5523 7 16 7.44772 16 8C16 8.55228 15.5523 9 15 9H1C0.447715 9 0 8.55228 0 8ZM0 12C0 11.4477 0.447715 11 1 11H19C19.5523 11 20 11.4477 20 12C20 12.5523 19.5523 13 19 13H1C0.447715 13 0 12.5523 0 12ZM0 16C0 15.4477 0.447715 15 1 15H15C15.5523 15 16 15.4477 16 16C16 16.5523 15.5523 17 15 17H1C0.447715 17 0 16.5523 0 16Z" fill="#3D75E4"/>
</svg>
