<svg width="20" height="20" viewBox="0 0 20 20" fill="none" xmlns="http://www.w3.org/2000/svg">
<path fill-rule="evenodd" clip-rule="evenodd" d="M9.99999 8.56408L17.2561 1.30921C17.3498 1.21264 17.4618 1.13566 17.5856 1.08276C17.7093 1.02985 17.8423 1.00208 17.9769 1.00105C18.1115 1.00001 18.2449 1.02574 18.3695 1.07674C18.494 1.12774 18.6072 1.20299 18.7024 1.29811C18.7976 1.39324 18.8729 1.50634 18.924 1.63083C18.9751 1.75533 19.0009 1.88875 19 2.02332C18.999 2.15789 18.9714 2.29093 18.9186 2.41471C18.8657 2.53849 18.7888 2.65053 18.6923 2.74432L11.4362 10.0002L18.6913 17.2562C18.7879 17.3499 18.8648 17.4619 18.9177 17.5856C18.9706 17.7094 18.9984 17.8424 18.9995 17.9769C19.0005 18.1115 18.9748 18.245 18.9238 18.3695C18.8728 18.494 18.7975 18.6072 18.7024 18.7024C18.6072 18.7976 18.4941 18.8729 18.3696 18.924C18.2451 18.9751 18.1117 19.0009 17.9771 19C17.8426 18.999 17.7095 18.9714 17.5857 18.9186C17.462 18.8657 17.3499 18.7888 17.2561 18.6923L9.99999 11.4364L2.74387 18.6913C2.55261 18.8772 2.2959 18.9803 2.0292 18.9785C1.76251 18.9766 1.50725 18.8699 1.3186 18.6814C1.12994 18.4929 1.02304 18.2377 1.02099 17.971C1.01894 17.7043 1.12192 17.4476 1.30766 17.2562L8.56379 10.0002L1.30871 2.74432C1.21208 2.65067 1.13502 2.53874 1.08203 2.41504C1.02904 2.29134 1.00117 2.15834 1.00004 2.02378C0.998906 1.88921 1.02454 1.75576 1.07545 1.63119C1.12636 1.50662 1.20152 1.39342 1.29658 1.29816C1.39163 1.2029 1.50467 1.12748 1.62914 1.0763C1.7536 1.02512 1.88699 0.999187 2.02156 1.00002C2.15614 1.00085 2.2892 1.02843 2.41302 1.08114C2.53684 1.13386 2.64894 1.21067 2.74281 1.3071L9.99999 8.56408Z" fill="#3D75E4"/>
</svg>
