<svg width="20" height="20" viewBox="0 0 20 20" fill="none" xmlns="http://www.w3.org/2000/svg">
<path fill-rule="evenodd" clip-rule="evenodd" d="M8.70712 18.707L15.7012 11.713L15.7071 11.7071L15.713 11.7012L18.2929 9.12126C19.4645 7.94969 19.4645 6.05019 18.2929 4.87862L15.1213 1.70705C13.9498 0.535475 12.0503 0.535477 10.8787 1.70705L1.2929 11.2928C1.13991 11.4458 1.04066 11.6443 1.01006 11.8585L0.0100605 18.8585C-0.034453 19.1701 0.0703362 19.4845 0.292903 19.707C0.51547 19.9296 0.829838 20.0344 1.14143 19.9899L8.14143 18.9899C8.35563 18.9593 8.55412 18.86 8.70712 18.707ZM13.7071 3.12126C13.3166 2.73074 12.6834 2.73074 12.2929 3.12126L10.4142 4.99998L15 9.58576L16.8787 7.70705C17.2692 7.31652 17.2692 6.68336 16.8787 6.29283L13.7071 3.12126ZM3.41419 12L8.99998 6.41419L13.5858 11L7.99997 16.5858L3.41419 12ZM2.70711 14.1213L2.17852 17.8214L5.87863 17.2928L2.70711 14.1213Z" fill="#3D75E4"/>
</svg>
