<svg width="20" height="20" viewBox="0 0 20 20" fill="none" xmlns="http://www.w3.org/2000/svg">
<path d="M0 3C0 1.34315 1.34315 0 3 0H14C15.6569 0 17 1.34315 17 3V6C17 6.55228 16.5523 7 16 7C15.4477 7 15 6.55228 15 6V3C15 2.44772 14.5523 2 14 2H3C2.44772 2 2 2.44772 2 3V17C2 17.5523 2.44772 18 3 18H14C14.5523 18 15 17.5523 15 17V16.5C15 15.9477 15.4477 15.5 16 15.5C16.5523 15.5 17 15.9477 17 16.5V17C17 18.6569 15.6569 20 14 20H3C1.34315 20 0 18.6569 0 17V3Z" fill="#3D75E4"/>
<path d="M4 6C4 5.44772 4.44772 5 5 5H12C12.5523 5 13 5.44772 13 6C13 6.55228 12.5523 7 12 7H5C4.44772 7 4 6.55228 4 6Z" fill="#3D75E4"/>
<path d="M5 9C4.44772 9 4 9.44771 4 10C4 10.5523 4.44772 11 5 11H10C10.5523 11 11 10.5523 11 10C11 9.44771 10.5523 9 10 9H5Z" fill="#3D75E4"/>
<path d="M4 14C4 13.4477 4.44772 13 5 13H9C9.55228 13 10 13.4477 10 14C10 14.5523 9.55228 15 9 15H5C4.44772 15 4 14.5523 4 14Z" fill="#3D75E4"/>
<path d="M19.8138 7.58132C20.1348 7.1319 20.0307 6.50735 19.5813 6.18634C19.1319 5.86533 18.5074 5.96943 18.1863 6.41884L13.1863 13.4188C12.8653 13.8683 12.9694 14.4928 13.4188 14.8138C13.8683 15.1348 14.4928 15.0307 14.8138 14.5813L19.8138 7.58132Z" fill="#3D75E4"/>
</svg>
