<svg width="20" height="20" viewBox="0 0 20 20" fill="none" xmlns="http://www.w3.org/2000/svg">
<path fill-rule="evenodd" clip-rule="evenodd" d="M0 10.0002C-2.41412e-08 9.44787 0.447715 9.00015 1 9.00015L10.5858 9.00015L7.29289 5.70726C6.90237 5.31674 6.90237 4.68357 7.29289 4.29305C7.68342 3.90252 8.31658 3.90252 8.70711 4.29305L13.7071 9.29305C14.0976 9.68357 14.0976 10.3167 13.7071 10.7073L8.70711 15.7073C8.31658 16.0978 7.68342 16.0978 7.29289 15.7073C6.90237 15.3167 6.90237 14.6836 7.29289 14.293L10.5858 11.0002L1 11.0002C0.447715 11.0002 2.41412e-08 10.5524 0 10.0002ZM12 19.0002C12 18.4479 12.4477 18.0002 13 18.0002H16.0001C17.1046 18.0002 18.0001 17.1047 18.0001 16.0002L18.0001 4.00015C18.0001 2.89558 17.1046 2.00015 16.0001 2.00015L13 2.00015C12.4477 2.00015 12 1.55244 12 1.00015C12 0.447868 12.4477 0.000152743 13 0.000152719L16.0001 0.000152588C18.2092 0.000152491 20.0001 1.79101 20.0001 4.00015L20.0001 16.0002C20.0001 18.2093 18.2092 20.0002 16.0001 20.0002H13C12.4477 20.0002 12 19.5524 12 19.0002Z" fill="#3D75E4"/>
</svg>
