<svg width="20" height="20" viewBox="0 0 20 20" fill="none" xmlns="http://www.w3.org/2000/svg">
<path d="M3.00004 3C2.44775 3 2.00004 3.44772 2.00004 4V14.5C2.00004 15.0523 1.55232 15.5 1.00004 15.5C0.447752 15.5 3.68186e-05 15.0523 3.68186e-05 14.5V4C3.68186e-05 2.34315 1.34318 1 3.00004 1H17C18.6569 1 20 2.34315 20 4V13C20 14.6569 18.6569 16 17 16H6.7016C6.47453 16 6.25422 16.0773 6.0769 16.2191L1.62473 19.7809C1.19347 20.1259 0.564178 20.056 0.219168 19.6247C-0.125842 19.1934 -0.0559202 18.5641 0.375342 18.2191L4.82751 14.6574C5.35945 14.2318 6.02038 14 6.7016 14H17C17.5523 14 18 13.5523 18 13V4C18 3.44772 17.5523 3 17 3H3.00004Z" fill="#3D75E4"/>
<path d="M5 7C5 6.44772 5.44772 6 6 6H14C14.5523 6 15 6.44772 15 7C15 7.55228 14.5523 8 14 8H6C5.44772 8 5 7.55228 5 7Z" fill="#3D75E4"/>
<path d="M6 9C5.44772 9 5 9.44771 5 10C5 10.5523 5.44772 11 6 11H12C12.5523 11 13 10.5523 13 10C13 9.44771 12.5523 9 12 9H6Z" fill="#3D75E4"/>
</svg>
