<svg width="20" height="20" viewBox="0 0 20 20" fill="none" xmlns="http://www.w3.org/2000/svg">
<path fill-rule="evenodd" clip-rule="evenodd" d="M6.5 3.5C6.5 1.567 8.067 0 10 0C11.933 0 13.5 1.567 13.5 3.5V10.5C13.5 12.433 11.933 14 10 14C8.067 14 6.5 12.433 6.5 10.5V3.5ZM10 2C9.17157 2 8.5 2.67157 8.5 3.5V10.5C8.5 11.3284 9.17157 12 10 12C10.8284 12 11.5 11.3284 11.5 10.5V3.5C11.5 2.67157 10.8284 2 10 2Z" fill="#3D75E4"/>
<path fill-rule="evenodd" clip-rule="evenodd" d="M5 8.5C5.55228 8.5 6 8.94771 6 9.5V10.5C6 12.7091 7.79086 14.5 10 14.5C12.2091 14.5 14 12.7091 14 10.5V9.5C14 8.94771 14.4477 8.5 15 8.5C15.5523 8.5 16 8.94771 16 9.5V10.5C16 13.8137 13.3137 16.5 10 16.5C6.68629 16.5 4 13.8137 4 10.5V9.5C4 8.94771 4.44772 8.5 5 8.5Z" fill="#3D75E4"/>
<path fill-rule="evenodd" clip-rule="evenodd" d="M10 14.5C10.5523 14.5 11 14.9477 11 15.5V17.5H13C13.5523 17.5 14 17.9477 14 18.5C14 19.0523 13.5523 19.5 13 19.5H7C6.44772 19.5 6 19.0523 6 18.5C6 17.9477 6.44772 17.5 7 17.5H9V15.5C9 14.9477 9.44772 14.5 10 14.5Z" fill="#3D75E4"/>
</svg>
