<svg width="20" height="20" viewBox="0 0 20 20" fill="none" xmlns="http://www.w3.org/2000/svg">
<path d="M3 4C2.44772 4 2 4.44772 2 5V15C2 15.5523 2.44772 16 3 16H10C10.5523 16 11 16.4477 11 17C11 17.5523 10.5523 18 10 18H3C1.34315 18 0 16.6569 0 15V5C0 3.34315 1.34315 2 3 2H7.67157C8.46722 2 9.23028 2.31607 9.79289 2.87868L10.6213 3.70711C10.8089 3.89464 11.0632 4 11.3284 4H17C18.6569 4 20 5.34315 20 7V10.5C20 11.0523 19.5523 11.5 19 11.5C18.4477 11.5 18 11.0523 18 10.5V7C18 6.44771 17.5523 6 17 6H11.3284C10.5328 6 9.76972 5.68393 9.20711 5.12132L8.37868 4.29289C8.19114 4.10536 7.93679 4 7.67157 4H3Z" fill="#3D75E4"/>
<path d="M15 10C15.5523 10 16 10.4477 16 11V13H18C18.5523 13 19 13.4477 19 14C19 14.5523 18.5523 15 18 15H16V17C16 17.5523 15.5523 18 15 18C14.4477 18 14 17.5523 14 17V15H12C11.4477 15 11 14.5523 11 14C11 13.4477 11.4477 13 12 13H14V11C14 10.4477 14.4477 10 15 10Z" fill="#3D75E4"/>
</svg>
