<svg width="32" height="32" viewBox="0 0 32 32" fill="none" xmlns="http://www.w3.org/2000/svg">
<path d="M16.8656 16.5C16.4809 15.8333 15.5193 15.8333 15.1346 16.5L13.4037 19.5C13.019 20.1667 13.4998 21 14.2692 21H17.731C18.5004 21 18.9812 20.1667 18.5965 19.5L16.8656 16.5Z" fill="#3D75E4"/>
<path d="M18.998 6C18.998 6.55228 18.5506 7 17.9987 7L14.0012 7C13.4493 7 13.0019 6.55229 13.0019 6C13.0019 5.44772 13.4493 5 14.0012 5L17.9987 5C18.5506 5 18.998 5.44772 18.998 6Z" fill="#3D75E4"/>
<path fill-rule="evenodd" clip-rule="evenodd" d="M22.8887 10.5374C23.4889 10.0347 23.7801 9.19254 23.5053 8.36754L23.3828 8L25.9936 8C26.5455 8 26.9929 7.55228 26.9929 7C26.9929 6.44772 26.5455 6 25.9936 6L22.9955 6C22.9031 6 22.8136 6.01256 22.7286 6.03606L21.5065 2.36755C21.2345 1.55086 20.4707 1 19.6104 1H12.3898C11.5295 1 10.7657 1.55086 10.4937 2.36754L9.2716 6.03614C9.18655 6.01258 9.09696 6 9.00442 6L6.00634 6C5.4544 6 5.00697 6.44772 5.00697 7C5.00697 7.55229 5.4544 8 6.00634 8L8.61739 8L8.49496 8.36754C8.22011 9.1926 8.51135 10.0348 9.11169 10.5375C9.06884 10.7184 9.05067 10.9086 9.06087 11.1042L9.9994 29.1042C10.0548 30.1668 10.932 31 11.9954 31H20.005C21.0684 31 21.9456 30.1668 22.001 29.1042L22.9395 11.1042C22.9497 10.9086 22.9315 10.7184 22.8887 10.5374ZM20.9435 11L11.0569 11L11.9954 29H20.005L20.9435 11ZM10.3911 9L12.3898 3L19.6104 3L21.6091 9L10.3911 9Z" fill="#3D75E4"/>
<path d="M26.4932 10L29.9992 10L27.5365 4H24.4945C23.9426 4 23.4952 3.55228 23.4952 3C23.4952 2.44771 23.9426 2 24.4945 2L27.5365 2C28.3471 2 29.0774 2.48988 29.3854 3.24016L31.8481 9.24016C32.1653 10.0131 31.9627 10.83 31.4534 11.3727L29.7182 26.2322C29.6005 27.2401 28.7471 28.0001 27.733 28.0001H24.9942C24.4423 28.0001 23.9949 27.5524 23.9949 27.0001C23.9949 26.4478 24.4423 26.0001 24.9942 26.0001H27.733L29.3678 12L26.4932 12C25.9413 12 25.4939 11.5523 25.4939 11C25.4939 10.4477 25.9413 10 26.4932 10Z" fill="#3D75E4"/>
<path d="M0.54677 11.3729C0.0373361 10.8302 -0.165381 10.0132 0.151905 9.24016L2.61462 3.24016C2.92258 2.48988 3.65289 2 4.46348 2L7.50548 2C8.05741 2 8.50484 2.44772 8.50484 3C8.50484 3.55228 8.05741 4 7.50548 4L4.46348 4L2.00076 10L5.50675 10C6.05869 10 6.50612 10.4477 6.50612 11C6.50612 11.5523 6.05869 12 5.50675 12L2.63232 12L4.26716 26.0001H7.50557C8.05751 26.0001 8.50494 26.4478 8.50494 27.0001C8.50494 27.5524 8.05751 28.0001 7.50557 28.0001H4.26716C3.25304 28.0001 2.39964 27.2401 2.28194 26.2322L0.54677 11.3729Z" fill="#3D75E4"/>
</svg>
