<svg width="20" height="20" viewBox="0 0 20 20" fill="none" xmlns="http://www.w3.org/2000/svg">
<path d="M3 3C3 1.34315 4.34315 0 6 0H14C15.6569 0 17 1.34315 17 3V4.5C17 5.05228 16.5523 5.5 16 5.5C15.4477 5.5 15 5.05228 15 4.5V3C15 2.44772 14.5523 2 14 2H13C13 2.55228 12.5523 3 12 3H8C7.44772 3 7 2.55228 7 2H6C5.44772 2 5 2.44772 5 3V17C5 17.5523 5.44772 18 6 18H14C14.5523 18 15 17.5523 15 17V8C15 7.44772 15.4477 7 16 7C16.5523 7 17 7.44772 17 8V17C17 18.6569 15.6569 20 14 20H6C4.34315 20 3 18.6569 3 17V3Z" fill="#3D75E4"/>
<path d="M11 16C11 16.5523 10.5523 17 10 17C9.44772 17 9 16.5523 9 16C9 15.4477 9.44772 15 10 15C10.5523 15 11 15.4477 11 16Z" fill="#3D75E4"/>
</svg>
