<svg width="21" height="21" viewBox="0 0 21 21" fill="none" xmlns="http://www.w3.org/2000/svg">
<path fill-rule="evenodd" clip-rule="evenodd" d="M11.7492 2.41106C13.8587 0.301537 17.2789 0.301538 19.3884 2.41106C21.498 4.52059 21.498 7.9408 19.3884 10.0503L10.0495 19.3892C7.94075 21.498 4.5217 21.498 2.4129 19.3892C0.302845 17.2792 0.304283 13.8576 2.41611 11.7494L6.7082 7.46447C8.17314 6.00199 10.546 6.00299 12.0097 7.4667C13.4757 8.93276 13.474 11.3103 12.0059 12.7742L8.49357 16.2764C8.10249 16.6664 7.46932 16.6654 7.07936 16.2744C6.6894 15.8833 6.69031 15.2501 7.0814 14.8601L10.5937 11.358C11.2789 10.6747 11.2797 9.56513 10.5955 8.88091C9.91234 8.19779 8.80492 8.19732 8.12123 8.87987L3.82913 13.1648C2.49948 14.4922 2.49857 16.6465 3.82711 17.975C5.15487 19.3027 7.30758 19.3027 8.63533 17.975L17.9742 8.63611C19.3027 7.30764 19.3027 5.15375 17.9742 3.82527C16.6457 2.4968 14.4919 2.4968 13.1634 3.82527L12.3852 4.60341C11.9947 4.99393 11.3616 4.99393 10.971 4.60341C10.5805 4.21288 10.5805 3.57972 10.971 3.18919L11.7492 2.41106Z" fill="#3D75E4"/>
</svg>
