<svg width="32" height="32" viewBox="0 0 32 32" fill="none" xmlns="http://www.w3.org/2000/svg">
<path d="M21.3656 30.0978C21.6421 30.5759 21.4788 31.1876 21.0007 31.4642C20.4115 31.8051 19.7271 31.9998 19.0004 31.9999C19.0002 31.9999 19.0002 32 19 32H4C1.79083 32 0 30.2091 0 28V4C0 1.79089 1.79083 0 4 0H8.16907C8.89404 0 9.60535 0.197022 10.227 0.570068L13.802 2.71503C14.1128 2.90149 14.4685 3 14.831 3H19C19.5523 3 20 3.44775 20 4C20 4.55231 19.5523 5 19 5H14.831C14.106 5 13.3946 4.80298 12.773 4.42999L9.19806 2.28503C8.88721 2.09851 8.53156 2 8.16907 2H4C2.89545 2 2 2.89545 2 4V28C2 29.1046 2.89545 30 4 30H18.9997C18.9998 30 18.9999 29.9999 19 29.9999C19.3659 29.9999 19.7061 29.9025 19.9993 29.7329C20.4773 29.4564 21.0891 29.6198 21.3656 30.0978ZM18 9C18 8.44775 17.5523 8 17 8H6C5.44769 8 5 8.44775 5 9C5 9.55231 5.44769 10 6 10H17C17.5523 10 18 9.55231 18 9ZM15 13C15 12.4477 14.5523 12 14 12H6C5.44769 12 5 12.4477 5 13C5 13.5523 5.44769 14 6 14H14C14.5523 14 15 13.5523 15 13ZM6 16C5.44769 16 5 16.4477 5 17C5 17.5523 5.44769 18 6 18H11C11.5523 18 12 17.5523 12 17C12 16.4477 11.5523 16 11 16H6ZM31.7071 31.7072C31.3166 32.0977 30.6834 32.0977 30.2929 31.7072L26.3295 27.7438C25.2547 28.5302 23.9338 29 22.5 29C18.9101 29 16 26.0899 16 22.5C16 19.4272 18.1345 16.8589 21 16.1809V4C21 2.89545 20.1046 2 19 2H15C14.4477 2 14 1.55231 14 1C14 0.447754 14.4477 0 15 0H19C21.2091 0 23 1.79089 23 4V16.0253C26.3555 16.2814 29 19.0789 29 22.5C29 23.9338 28.5302 25.2549 27.7438 26.3297L31.7071 30.293C32.0976 30.6835 32.0976 31.3167 31.7071 31.7072ZM22.5 27C24.9853 27 27 24.9853 27 22.5C27 20.0147 24.9853 18 22.5 18C20.0147 18 18 20.0147 18 22.5C18 24.9853 20.0147 27 22.5 27Z" fill="#3D75E4"/>
</svg>
