<svg width="40" height="40" viewBox="0 0 40 40" fill="none" xmlns="http://www.w3.org/2000/svg">
<path d="M25.8679 2.74389C23.5241 -0.427451 19.6154 -0.535589 16.6054 0.835256C13.5218 2.23973 10.8823 5.41761 11.5694 9.15066C11.6253 9.45378 11.8186 9.7145 12.0938 9.85746C12.3688 10.0004 12.6948 10.0097 12.9774 9.88254C14.8855 9.02502 16.7433 8.95293 18.5644 8.88227L18.5821 8.88163C18.7321 8.87579 18.8818 8.86996 19.031 8.86367C20.8851 8.78589 22.9864 8.64999 24.3496 6.88276C24.6881 6.44385 24.6042 5.81555 24.162 5.47947C23.7198 5.14339 23.0868 5.22675 22.7481 5.66569C22.0314 6.59497 20.9232 6.78055 18.9458 6.86351C18.787 6.87017 18.624 6.87622 18.4573 6.88242C17.0239 6.93567 15.3033 6.99957 13.5011 7.55049C13.701 5.50088 15.2902 3.63691 17.4467 2.65481C19.998 1.49273 22.8446 1.78507 24.424 4.18976C24.5874 4.4386 24.8536 4.60252 25.151 4.63722C25.4614 4.67348 25.6586 4.81809 25.8256 5.1074C26.0171 5.43912 26.1382 5.92806 26.188 6.51054C26.1993 6.64489 26.2064 6.7796 26.2104 6.91276C25.7778 6.65998 25.2133 6.7613 24.8999 7.1667C24.5608 7.60527 24.6441 8.23363 25.086 8.5702C25.505 8.88942 25.8238 9.16722 26.0343 9.36168C26.1395 9.45885 26.2175 9.53501 26.2673 9.58483L26.3207 9.63908L26.331 9.64989L26.3322 9.65127C26.5915 9.92879 26.9864 10.0375 27.3527 9.93209C27.7196 9.82643 27.9948 9.52398 28.0638 9.1509L28.0643 9.14791L28.0652 9.14308L28.0677 9.12802L28.0766 9.07701C28.0837 9.034 28.0933 8.97327 28.1044 8.8973C28.1263 8.74554 28.1539 8.53149 28.1778 8.27474C28.2248 7.76616 28.2593 7.06693 28.1975 6.34207C28.1371 5.63242 27.9781 4.80935 27.5758 4.11232C27.2176 3.49172 26.6602 2.96866 25.8679 2.74389Z" fill="#3D75E4"/>
<path d="M14.9623 11.0731C15.4044 11.4093 15.4886 12.0379 15.1499 12.4768C14.8116 12.9154 14.1791 12.9987 13.7382 12.6641L13.7305 12.6584L13.6911 12.6301C13.6545 12.6043 13.5993 12.5667 13.5311 12.5237C13.391 12.4354 13.2199 12.3394 13.0552 12.2728C13.0449 12.3829 13.0395 12.5247 13.0461 12.6996C13.0601 13.0765 13.1249 13.514 13.2362 13.9357C13.3487 14.3624 13.4969 14.7288 13.6542 14.9848C13.6769 15.0216 13.698 15.0536 13.7177 15.0816C13.7488 15.1255 13.7761 15.1593 13.7992 15.1851C13.8413 15.2321 13.8689 15.2525 13.8783 15.2595L13.8817 15.2622C14.1963 15.357 14.4453 15.5986 14.5474 15.9099C14.9438 17.1169 15.5091 18.506 16.3939 19.5825C17.2522 20.6269 18.3842 21.3516 19.9998 21.3516L20.0123 21.3517C21.6207 21.348 22.7493 20.6243 23.6053 19.5826C24.4902 18.5061 25.0555 17.117 25.4518 15.91C25.554 15.5988 25.8029 15.3572 26.1176 15.2623L26.1213 15.2594C26.1309 15.2523 26.1582 15.232 26.1993 15.186C26.2279 15.154 26.2631 15.1096 26.3042 15.0486L26.3278 15.0123L26.3451 14.9849C26.4389 14.8324 26.5295 14.6407 26.6109 14.4205C26.6663 14.271 26.7176 14.1083 26.7631 13.9358C26.8744 13.5141 26.9391 13.0766 26.9532 12.6997C26.9556 12.6296 26.9564 12.5649 26.9556 12.5053C26.9549 12.4338 26.9519 12.3698 26.9475 12.3132C26.931 12.3233 26.9148 12.3336 26.8988 12.3441L26.8695 12.3633L26.8394 12.3838L26.8111 12.4036C26.7619 12.4386 26.7222 12.4694 26.6964 12.4901L26.6698 12.5119L26.6663 12.5148C26.249 12.8781 25.6141 12.8384 25.246 12.4253C24.8772 12.0111 24.9164 11.3786 25.3334 11.0124L25.3356 11.0106L25.3381 11.0084L25.3447 11.0026L25.3644 10.9859C25.3799 10.9727 25.4011 10.9553 25.4267 10.9345C25.4782 10.8933 25.5498 10.8378 25.6367 10.776C25.8042 10.6569 26.057 10.4939 26.3505 10.3696C26.6235 10.2539 27.0598 10.116 27.5406 10.2068C28.1091 10.3142 28.5325 10.6981 28.7558 11.2336C28.9496 11.6984 28.9875 12.2694 28.9688 12.7735C28.9489 13.3062 28.8602 13.889 28.7142 14.4426C28.5697 14.9911 28.3572 15.5548 28.0667 16.0277C27.8764 16.3372 27.6056 16.6838 27.2346 16.9295C26.8138 18.1381 26.1801 19.6168 25.1682 20.848C24.0158 22.2506 22.3487 23.3536 19.9998 23.3536H19.985C17.6436 23.3489 15.981 22.2475 14.831 20.8479C13.8192 19.6167 13.1855 18.138 12.7647 16.9294C12.3937 16.6837 12.1229 16.337 11.9325 16.0276C11.642 15.5547 11.4296 14.991 11.285 14.4425C11.139 13.8889 11.0504 13.3061 11.0305 12.7733C11.0118 12.2693 11.0497 11.6983 11.2434 11.2334C11.3594 10.9558 11.5403 10.7047 11.7966 10.5165C12.0515 10.3297 12.3294 10.2423 12.5842 10.2125C13.0599 10.1568 13.5072 10.2948 13.8069 10.4151C14.1289 10.5444 14.4162 10.71 14.6132 10.8343C14.7143 10.8981 14.7978 10.9549 14.8574 10.9969C14.8874 11.018 14.9116 11.0355 14.9293 11.0485L14.9512 11.0646L14.9583 11.07L14.9608 11.0719L14.9623 11.0731Z" fill="#3D75E4"/>
<path fill-rule="evenodd" clip-rule="evenodd" d="M18.8813 24.5226C19.5588 24.0743 20.4412 24.0743 21.1187 24.5226L23.3692 26.0119L24.9484 24.6186L24.5576 22.6792C24.4483 22.1371 24.8026 21.6098 25.3487 21.5014C25.8948 21.3929 26.4261 21.7445 26.5354 22.2866L26.8842 24.0177C30.0563 24.2712 32.9373 25.9455 35.1686 28.1773C37.5946 30.6038 39.3527 33.7844 39.9478 36.8202C40.3068 38.6509 38.7535 40 37.1434 40H27.059C26.5021 40 26.0506 39.5518 26.0506 38.999C26.0506 38.4462 26.5021 37.998 27.059 37.998H37.1434C37.428 37.998 37.6663 37.8824 37.8123 37.7278C37.9494 37.5826 38.008 37.4058 37.9681 37.2026C37.457 34.5957 35.9124 31.7633 33.7372 29.5875C31.6578 27.5078 29.0934 26.1147 26.4243 25.9947L22.639 29.3346L24.6987 37.5125C25.0171 38.776 24.0542 40 22.7422 40H17.2578C15.9456 40 14.983 38.776 15.3013 37.5125L17.361 29.3346L13.5754 25.9947C10.9066 26.1147 8.34222 27.5078 6.26282 29.5875C4.0874 31.7633 2.54299 34.5957 2.03188 37.2026C1.992 37.4058 2.05059 37.5826 2.18773 37.7278C2.33372 37.8824 2.57204 37.998 2.85665 37.998H12.941C13.4979 37.998 13.9494 38.4462 13.9494 38.999C13.9494 39.5518 13.4979 40 12.941 40H2.85665C1.24626 40 -0.306766 38.6509 0.0521931 36.8202C0.647257 33.7844 2.40512 30.6038 4.83142 28.1773C7.06272 25.9455 9.94374 24.2712 13.1158 24.0177L13.4646 22.2866C13.574 21.7445 14.1053 21.3929 14.6513 21.5014C15.1974 21.6098 15.5517 22.1371 15.4424 22.6792L15.0516 24.6186L16.6308 26.0119L18.8813 24.5226ZM18.189 27.3868L19.1573 28.2411C19.4379 28.4887 19.5566 28.8705 19.4657 29.232L17.2578 37.998H22.7422L20.5343 29.232C20.4432 28.8705 20.5621 28.4887 20.8427 28.2411L21.811 27.3868L20 26.1884L18.189 27.3868Z" fill="#3D75E4"/>
<path d="M23.4882 12.9736C23.4882 13.5264 23.0366 13.9746 22.4797 13.9746C21.9228 13.9746 21.4713 13.5264 21.4713 12.9736C21.4713 12.4208 21.9228 11.9726 22.4797 11.9726C23.0366 11.9726 23.4882 12.4208 23.4882 12.9736Z" fill="#3D75E4"/>
<path d="M17.5198 13.9746C18.0767 13.9746 18.5282 13.5264 18.5282 12.9736C18.5282 12.4208 18.0767 11.9726 17.5198 11.9726C16.9629 11.9726 16.5114 12.4208 16.5114 12.9736C16.5114 13.5264 16.9629 13.9746 17.5198 13.9746Z" fill="#3D75E4"/>
</svg>
