<svg width="20" height="20" viewBox="0 0 20 20" fill="none" xmlns="http://www.w3.org/2000/svg">
    <g clip-path="url(#clip0_2691_5369)">
        <path d="M9.29289 14.7071C9.68342 15.0976 10.3166 15.0976 10.7071 14.7071L15.7071 9.70711C16.0976 9.31658 16.0976 8.68342 15.7071 8.29289C15.3166 7.90237 14.6834 7.90237 14.2929 8.29289L11 11.5858L11 1C11 0.447715 10.5523 0 10 0C9.44771 0 9 0.447715 9 1L9 11.5858L5.70711 8.29289C5.31658 7.90237 4.68342 7.90237 4.29289 8.29289C3.90237 8.68342 3.90237 9.31658 4.29289 9.70711L9.29289 14.7071Z" fill="#214EB0"/>
        <path d="M1 18C0.447715 18 0 18.4477 0 19C0 19.5523 0.447715 20 1 20L19 20C19.5523 20 20 19.5523 20 19C20 18.4477 19.5523 18 19 18L1 18Z" fill="#214EB0"/>
    </g>
    <defs>
        <clipPath id="clip0_2691_5369">
            <rect width="20" height="20" fill="white"/>
        </clipPath>
    </defs>
</svg>