<svg width="20" height="20" viewBox="0 0 20 20" fill="none" xmlns="http://www.w3.org/2000/svg">
<path fill-rule="evenodd" clip-rule="evenodd" d="M4.13333 2C3.44564 2 3 2.50753 3 3V17C3 17.4925 3.44563 18 4.13333 18H15.8667C16.5544 18 17 17.4925 17 17V10.9667C17 10.4742 16.5544 9.96667 15.8667 9.96667H14.0533C12.3846 9.96667 10.92 8.68334 10.92 6.96667V4.5C10.92 3.94772 11.3677 3.5 11.92 3.5C12.4723 3.5 12.92 3.94772 12.92 4.5V6.96667C12.92 7.45914 13.3656 7.96667 14.0533 7.96667H15.8667C17.5354 7.96667 19 9.25 19 10.9667V17C19 18.7167 17.5354 20 15.8667 20H4.13333C2.46461 20 1 18.7167 1 17V3C1 1.28333 2.46462 0 4.13333 0H12.8885C13.8425 0 14.7617 0.417441 15.3638 1.1601C15.3772 1.17671 15.3902 1.19374 15.4025 1.21117L18.7445 5.92134C19.064 6.37177 18.958 6.99599 18.5075 7.31557C18.0571 7.63515 17.4329 7.52909 17.1133 7.07866L13.7931 2.39911C13.5869 2.15799 13.2575 2 12.8885 2H4.13333Z" fill="#3D75E4"/>
</svg>
