<svg width="20" height="20" viewBox="0 0 20 20" fill="none" xmlns="http://www.w3.org/2000/svg">
<path d="M10 0C15.5228 0 20 4.47715 20 10C20 15.5228 15.5228 20 10 20C4.47715 20 0 15.5228 0 10C0 4.47715 4.47715 0 10 0ZM10 2C5.58172 2 2 5.58172 2 10C2 14.4183 5.58172 18 10 18C14.4183 18 18 14.4183 18 10C18 5.58172 14.4183 2 10 2ZM10.6311 12.0762C10.2577 12.4248 9.67235 12.4046 9.32377 12.0311C8.9752 11.6577 8.99539 11.0723 9.36886 10.7238C9.42191 10.6743 10.6722 9.54877 10.9632 9.25478C11.592 8.61967 11.85 8.16328 11.85 7.7C11.85 6.74003 10.982 5.85 10 5.85C9.01796 5.85 8.15 6.74003 8.15 7.7C8.15 8.21086 7.73586 8.625 7.225 8.625C6.71414 8.625 6.3 8.21086 6.3 7.7C6.3 5.72856 7.98569 4 10 4C12.0143 4 13.7 5.72856 13.7 7.7C13.7 8.75314 13.2166 9.60814 12.278 10.5563C11.9426 10.8951 10.6493 12.0593 10.6311 12.0762ZM10 16C9.28203 16 8.7 15.418 8.7 14.7C8.7 13.982 9.28203 13.4 10 13.4C10.718 13.4 11.3 13.982 11.3 14.7C11.3 15.418 10.718 16 10 16Z" fill="#3D75E4"/>
</svg>
