<svg width="20" height="20" viewBox="0 0 20 20" fill="none" xmlns="http://www.w3.org/2000/svg">
<path d="M8.99446 1.0006C8.99413 0.448317 9.44157 0.000332534 9.99386 0H10.0061C10.0075 8.06729e-07 10.0088 4.24905e-06 10.0102 1.03221e-05C12.7564 0.002843 15.2434 1.11266 17.049 2.90729C17.0549 2.91297 17.0609 2.91875 17.0667 2.92461L17.0754 2.93325C17.0813 2.93915 17.0871 2.94509 17.0928 2.95109C17.9988 3.86274 18.7302 4.94806 19.2327 6.15273C19.2347 6.1572 19.2366 6.16169 19.2385 6.16621L19.2431 6.1775C19.245 6.18199 19.2468 6.18649 19.2486 6.191C19.7284 7.35466 19.9949 8.62868 19.9996 9.96439C19.9998 9.97418 20 9.984 20 9.99386V10.0061C20 10.016 19.9998 10.0258 19.9996 10.0356C19.9949 11.3714 19.7283 12.6454 19.2486 13.8091C19.2468 13.8136 19.245 13.818 19.2431 13.8225L19.2385 13.8338C19.2366 13.8383 19.2347 13.8427 19.2328 13.8472C18.7302 15.0519 17.9987 16.1373 17.0926 17.049C17.087 17.055 17.0812 17.0609 17.0754 17.0667L17.0667 17.0754C17.0609 17.0812 17.055 17.087 17.049 17.0926C15.2411 18.8896 12.75 20 9.99961 20C7.23686 20 4.73419 18.8783 2.92539 17.0679C2.87193 17.0144 2.8258 16.9563 2.78699 16.895C2.54165 16.5082 2.58788 15.9897 2.92547 15.6525C3.31623 15.2622 3.94939 15.2626 4.33968 15.6534L4.34661 15.6603C4.35185 15.6656 4.35703 15.6708 4.36214 15.6762C5.0907 16.3998 5.95699 16.9838 6.91833 17.3853C6.92338 17.3873 6.92842 17.3894 6.93345 17.3915L6.94247 17.3952C6.94744 17.3973 6.95239 17.3994 6.95731 17.4015C7.89255 17.7863 8.91674 17.9989 9.99087 18C9.99226 18 9.99366 18 9.99506 18H10.0049C10.0062 18 10.0075 18 10.0087 18C14.4228 17.9951 17.9996 14.4152 17.9996 10C17.9996 5.58172 14.4179 2 9.99961 2C9.99994 2 9.99929 2 9.99961 2L9.99506 2C9.44278 2.00033 8.99479 1.55289 8.99446 1.0006Z" fill="#3D75E4"/>
<path d="M7.48395 1.29833C7.69519 1.80862 7.45276 2.39354 6.94247 2.60478L6.93345 2.60852C6.42342 2.82039 5.83821 2.57868 5.62634 2.06865C5.41447 1.55862 5.65618 0.973408 6.16621 0.76154L6.1775 0.756858C6.68779 0.545616 7.27271 0.788043 7.48395 1.29833Z" fill="#3D75E4"/>
<path d="M4.34747 2.92547C4.73775 3.31623 4.73737 3.94939 4.34661 4.33968L4.33968 4.34661C3.9494 4.73737 3.31623 4.73775 2.92547 4.34747C2.53471 3.95718 2.53432 3.32402 2.92461 2.93325L2.93325 2.92461C3.32402 2.53432 3.95718 2.53471 4.34747 2.92547Z" fill="#3D75E4"/>
<path d="M2.06865 5.62634C2.57868 5.83821 2.82039 6.42342 2.60852 6.93345L2.60478 6.94247C2.39354 7.45276 1.80862 7.69519 1.29833 7.48395C0.788043 7.27271 0.545616 6.68779 0.756857 6.1775L0.76154 6.16621C0.973408 5.65618 1.55862 5.41447 2.06865 5.62634Z" fill="#3D75E4"/>
<path d="M1.0006 8.99446C1.55289 8.99479 2.00033 9.44278 2 9.99506V10.0049C2.00033 10.5572 1.55289 11.0052 1.0006 11.0055C0.448317 11.0059 0.000332534 10.5584 0 10.0061V9.99386C0.000332475 9.44158 0.448317 8.99413 1.0006 8.99446Z" fill="#3D75E4"/>
<path d="M1.29833 12.516C1.80862 12.3048 2.39354 12.5472 2.60478 13.0575L2.60852 13.0665C2.82039 13.5766 2.57868 14.1618 2.06865 14.3737C1.55862 14.5855 0.973408 14.3438 0.76154 13.8338L0.756858 13.8225C0.545616 13.3122 0.788043 12.7273 1.29833 12.516Z" fill="#3D75E4"/>
<path d="M9.58203 15.9294C12.8957 15.9294 15.582 13.2431 15.582 9.92936C15.582 6.9549 13.4176 4.48597 10.5778 4.01162C10.0331 3.92062 9.58203 4.37707 9.58203 4.92936V9.47564C9.58203 9.76397 9.45757 10.0383 9.2406 10.2282L5.81965 13.222C5.40393 13.5858 5.35762 14.2256 5.78518 14.5754C6.81945 15.4217 8.14145 15.9294 9.58203 15.9294Z" fill="#3D75E4"/>
<path d="M3.58309 10.0434L3.58305 9.81747C3.58237 9.85469 3.58203 9.89198 3.58203 9.92936C3.58203 9.96745 3.58239 10.0055 3.58309 10.0434Z" fill="#3D75E4"/>
</svg>
