<svg width="20" height="20" viewBox="0 0 20 20" fill="none" xmlns="http://www.w3.org/2000/svg">
<path d="M0 3C0 2.44772 0.447715 2 1 2H19C19.5523 2 20 2.44772 20 3C20 3.55228 19.5523 4 19 4H1C0.447715 4 0 3.55228 0 3Z" fill="#3D75E4"/>
<path d="M0 10C0 9.44772 0.447715 9 1 9L19 9C19.5523 9 20 9.44772 20 10C20 10.5523 19.5523 11 19 11L1 11C0.447715 11 0 10.5523 0 10Z" fill="#3D75E4"/>
<path d="M1 16C0.447715 16 0 16.4477 0 17C0 17.5523 0.447715 18 1 18H19C19.5523 18 20 17.5523 20 17C20 16.4477 19.5523 16 19 16H1Z" fill="#3D75E4"/>
</svg>
