<svg width="32" height="24" viewBox="0 0 32 24" fill="none" xmlns="http://www.w3.org/2000/svg">
<path d="M19.8643 14.3408C18.8408 13.999 17.8369 14.3877 17.1709 14.71C16.3989 15.085 15.6035 15.083 14.8286 14.71C14.1611 14.3877 13.1562 13.999 12.1362 14.3408C10.8398 14.7734 6.51514 16.5156 5.30762 20.749C5.0957 21.4932 5.24219 22.2744 5.7085 22.8926C6.23193 23.5859 7.08887 24 8 24H24C24.9111 24 25.7676 23.5859 26.291 22.8926C26.7578 22.2744 26.9043 21.4932 26.6924 20.749C25.4854 16.5156 21.1602 14.7734 19.8643 14.3408ZM24.6953 21.6875C24.5518 21.877 24.2793 22 24 22H8C7.72119 22 7.44824 21.877 7.30469 21.6875C7.18457 21.5283 7.20508 21.3887 7.23145 21.2979H7.23096C8.16992 18.0059 11.708 16.5918 12.77 16.2373C13.1011 16.1279 13.6069 16.3408 13.9585 16.5107C14.4204 16.7344 15.1499 17 16 17C16.8511 17 17.5801 16.7334 18.042 16.5107C18.3936 16.3398 18.9004 16.1309 19.2305 16.2373C20.292 16.5918 23.8301 18.0049 24.7686 21.2979C24.7949 21.3887 24.8154 21.5283 24.6953 21.6875ZM16 14C17.6378 14 18.9133 12.9132 19.7266 11.4863C20.546 10.0485 21 8.11792 21 6V2.73596C21 2.45636 20.9441 2.07764 20.7016 1.72778C19.926 0.608765 18.3093 0 16 0C13.6906 0 12.0743 0.608765 11.2986 1.7276C11.056 2.07751 11 2.4563 11 2.73608V5V5.40002V7C11 8.82611 11.637 10.5255 12.5263 11.7787C13.3756 12.9754 14.6366 14 16 14ZM13 6.03448C14.6452 5.33258 16.0022 5.6449 16.5862 5.91034C17.089 6.13892 17.6818 5.91656 17.9104 5.41382C18.1389 4.91101 17.9166 4.31818 17.4138 4.0896C16.5233 3.68488 14.9003 3.34161 13 3.91388V2.79956C13.2704 2.48621 14.0604 2 16 2C17.9396 2 18.7297 2.48627 19 2.7995V6C19 7.85852 18.5977 9.42798 17.989 10.496C17.374 11.575 16.6496 12 16 12C15.6083 12 14.8694 11.6246 14.1574 10.6213C13.4855 9.6745 13 8.3739 13 7V6.03448ZM5 19C5 19.5527 4.55225 20 4 20H2C1.4248 20 0.823314 19.7549 0.453197 19.3281C0.101635 18.9238 -0.0565685 18.3896 0.0181385 17.8613C0.471752 14.668 2.85303 13.5127 3.83057 13.1641C4.229 13.0205 4.66455 13.0225 5.12549 13.166C5.54102 13.2939 5.97705 13.3008 6.35059 13.1836C6.86719 13.0215 7.3374 13.0303 7.74854 13.207C7.97168 13.3027 8.21582 13.4297 8.49707 13.5898C8.97607 13.8643 9.14209 14.4756 8.86768 14.9551C8.59375 15.4336 7.98291 15.6006 7.50293 15.3262C7.32227 15.2227 7.16357 15.1367 7.01562 15.0703C7.0083 15.0752 6.9834 15.0811 6.94971 15.0918C6.19336 15.3291 5.33496 15.3242 4.53369 15.0762C3.56006 15.3848 2.30664 16.1504 2 18H4C4.55225 18 5 18.4473 5 19ZM31.5481 19.3281C31.177 19.7549 30.5752 20 29.999 20H27.999C27.4463 20 26.999 19.5527 26.999 19C26.999 18.4473 27.4463 18 27.999 18H30C29.6875 16.166 28.4365 15.3828 27.4971 15.0469C26.665 15.3242 25.8066 15.3301 25.0488 15.0918C24.9766 15.0693 24.9463 15.0674 24.9453 15.0674C24.876 15.1152 24.6992 15.21 24.4941 15.3271C24.0137 15.5996 23.4033 15.4326 23.1299 14.9531C22.8564 14.4736 23.0234 13.8633 23.5039 13.5889C23.7852 13.4287 24.0283 13.3027 24.2539 13.2061C24.6621 13.0303 25.1318 13.0215 25.6465 13.1836C26.0234 13.3008 26.457 13.2939 26.876 13.166C27.334 13.0215 27.7695 13.0215 28.1689 13.1631C29.1465 13.5127 31.5276 14.668 31.9817 17.8613C32.0569 18.3887 31.8986 18.9229 31.5481 19.3281ZM6.10577 12C7.2193 12 8.21521 11.3321 8.89117 10.3782C9.57788 9.40918 9.99951 8.07428 9.99951 6.5V5C9.99951 4.38538 9.70386 3.90918 9.35675 3.58252C9.02362 3.26898 8.61121 3.05743 8.23328 2.91217C7.47754 2.62177 6.60345 2.5 5.99951 2.5C5.39551 2.5 4.52148 2.62177 3.76581 2.91223C3.38788 3.05743 2.9754 3.26898 2.64233 3.58252C2.29523 3.90918 1.99957 4.38531 1.99951 4.99994V5V6.5C1.99951 9.55701 3.69226 12 6.10577 12ZM3.99951 5.0528C4.00378 5.04773 3.99921 5.05194 4.013 5.03894C4.08618 4.97009 4.23621 4.87402 4.48328 4.77905C4.9776 4.58911 5.60352 4.5 5.99951 4.5C6.39557 4.5 7.02148 4.58911 7.51575 4.77905C7.76282 4.87402 7.9129 4.97009 7.98602 5.03888C7.99982 5.05188 7.99524 5.04767 7.99951 5.05273V6.5C7.99951 7.72571 7.67114 8.64081 7.2594 9.2218C6.83698 9.81787 6.38599 10 6.10577 10C5.30676 10 3.99951 9.04303 3.99951 6.5V5.0528ZM25.8937 12C28.3072 12 30 9.55701 30 6.5V5V4.99994C30 4.38531 29.7043 3.90918 29.3572 3.58252C29.0241 3.26898 28.6117 3.05743 28.2337 2.91223C27.478 2.62177 26.604 2.5 26 2.5C25.396 2.5 24.522 2.62177 23.7662 2.91217C23.3883 3.05743 22.9759 3.26898 22.6428 3.58252C22.2956 3.90918 22 4.38538 22 5V6.5C22 8.07428 22.4216 9.40918 23.1083 10.3782C23.7843 11.3321 24.7802 12 25.8937 12ZM24 5.0528C24.0043 5.04773 23.9997 5.05188 24.0135 5.03888C24.0866 4.97009 24.2367 4.87402 24.4838 4.77905C24.978 4.58911 25.604 4.5 26 4.5C26.396 4.5 27.0219 4.58911 27.5162 4.77905C27.7633 4.87402 27.9133 4.97009 27.9865 5.03894C28.0003 5.05194 27.9957 5.04773 28 5.0528V6.5C28 9.04303 26.6928 10 25.8937 10C25.6135 10 25.1625 9.81787 24.7401 9.2218C24.3284 8.64081 24 7.72571 24 6.5V5.0528Z" fill="#3D75E4"/>
</svg>
