<svg width="20" height="20" viewBox="0 0 20 20" fill="none" xmlns="http://www.w3.org/2000/svg">
<path d="M8.5 2C4.91015 2 2 4.91015 2 8.5C2 12.0899 4.91015 15 8.5 15C10.2953 15 11.9191 14.2735 13.0965 13.0959C13.487 12.7054 14.1201 12.7054 14.5107 13.0959C14.5444 13.1296 14.5753 13.1652 14.6032 13.2022C14.6394 13.2297 14.6741 13.2599 14.7071 13.2929L19.7071 18.2929C20.0976 18.6834 20.0976 19.3166 19.7071 19.7071C19.3166 20.0976 18.6834 20.0976 18.2929 19.7071L13.7618 15.176C12.3149 16.3176 10.4865 17 8.5 17C3.80558 17 0 13.1944 0 8.5C0 3.80558 3.80558 0 8.5 0C13.1944 0 17 3.80558 17 8.5C17 9.49168 16.8298 10.4458 16.5161 11.3332C16.332 11.854 15.7607 12.1269 15.24 11.9428C14.7193 11.7588 14.4463 11.1875 14.6304 10.6668C14.8695 9.99035 15 9.2615 15 8.5C15 4.91015 12.0899 2 8.5 2Z" fill="#3D75E4"/>
<path d="M5 8.5C5 6.567 6.567 5 8.5 5C9.05228 5 9.5 4.55228 9.5 4C9.5 3.44772 9.05228 3 8.5 3C5.46243 3 3 5.46243 3 8.5C3 9.05228 3.44772 9.5 4 9.5C4.55228 9.5 5 9.05228 5 8.5Z" fill="#3D75E4"/>
</svg>
