<svg xmlns="http://www.w3.org/2000/svg" width="16" height="16" viewBox="0 0 16 16" fill="none"><g clip-path="url(#a)"><path d="M1.41 12.533A7.965 7.965 0 0 1 .263 10.04h3.639l-2.494 2.493Zm4.35 3.147a7.972 7.972 0 0 1-2.527-1.255l2.527-2.527v3.782ZM3.42 1.442A7.96 7.96 0 0 1 5.76.321v3.46L3.42 1.442ZM.356 5.638A7.97 7.97 0 0 1 1.543 3.28l2.36 2.36H.355Z" fill="#29337A"/><path d="M1.54 12.718a8.221 8.221 0 0 1-.131-.186l2.493-2.493H.263a8.003 8.003 0 0 1-.147-.685h4.79L1.54 12.718ZM3.235 1.574c.06-.045.123-.088.186-.132l2.339 2.34V.32c.224-.065.453-.122.685-.168v4.632l-3.21-3.21ZM.177 6.323c.05-.232.109-.46.178-.685h3.547L1.543 3.279c.257-.35.541-.68.85-.984l4.028 4.028H.177ZM5.76 15.68v-3.783l-2.527 2.527a8.044 8.044 0 0 1-.976-.858l4.188-4.188v6.47a8.06 8.06 0 0 1-.685-.168Z" fill="#fff"/><path d="m5.76 5.662-.025-.024h.024v.024Zm.66.662h.025v.024l-.024-.024ZM9.5 9.355h-.024v-.023l.023.023Zm-3.717.685-.024.024v-.024h.024Zm.661-.66v-.024h.024l-.024.023Z" fill="#D32030"/><path d="M10.161 2.091V.298c.857.24 1.657.618 2.372 1.111L10.59 3.352c-.156-.545-.213-.827-.429-1.26Zm.439 10.245 2.121 2.121a7.967 7.967 0 0 1-2.56 1.245V13.86c.25-.5.27-.88.44-1.524Zm3.824-9.104c.535.719.95 1.53 1.221 2.406H12.02l2.405-2.406Zm1.313 6.808a7.963 7.963 0 0 1-1.179 2.54l-2.54-2.54h3.719Z" fill="#252F6C"/><path d="m11.067 6.187.55-.55 2.63-2.631c.06.074.12.149.177.226l-2.405 2.405h3.626c.07.224.128.453.177.685h-4.704c-.008-.097-.042-.039-.051-.135Zm-.55 5.747 2.385 2.386-.18.137-2.122-2.121c.022-.084-.103-.316-.083-.402Zm-.356 2.073v1.695a7.995 7.995 0 0 1-.685.16v-.827a4.41 4.41 0 0 0 .685-1.028Zm.852-4.652h4.87a7.98 7.98 0 0 1-.146.685h-3.719l2.54 2.54a8.14 8.14 0 0 1-.83 1.003l-2.861-2.861c.077-.519.111-.82.146-1.367Zm-.539-5.887 2.059-2.059c.342.236.665.498.966.783L10.79 4.901a13.91 13.91 0 0 0-.317-1.433ZM9.476 1.06V.138c.232.044.46.097.685.16v1.793a4.45 4.45 0 0 0-.685-1.031Z" fill="#E7E7E7"/><path d="m10.867 10.722 2.86 2.86a7.916 7.916 0 0 1-.825.738l-2.248-2.248c.1-.418.146-.896.213-1.35Z" fill="#D71F28"/><path d="M7.6 15.99ZM8 0Zm0 0c.505 0 .998.049 1.476.138v.922C9.056.604 8.565 0 8 0Z" fill="#D32030"/><path d="M15.883 9.354h-4.807a21.489 21.489 0 0 0-.023-3.031h4.77a8.022 8.022 0 0 1 .06 3.031Zm-4.816-3.167c-.044-.472-.2-.84-.276-1.287l2.708-2.708c.268.254.518.526.749.814l-2.631 2.632-.55.55Z" fill="#D71F28"/><path d="M9.477 14.976v.886c-.48.09-.972.138-1.477.138.565 0 1.056-.569 1.477-1.024Z" fill="#D32030"/><path d="M10.162 1.746c.216.433.401.933.557 1.478l-.557.557V1.746Zm.626 10.778a8.995 8.995 0 0 1-.627 1.73v-2.356l.627.626Z" fill="#29337A"/><path d="M11.222 6.032c.01.096.017.193.025.29h-.316l.291-.29Zm-1.061 5.865v2.357a4.41 4.41 0 0 1-.685 1.028v-4.388l1.376 1.376c-.02.086-.043.17-.064.254l-.627-.627Zm-.662-2.543h1.77c-.034.547-.09 1.085-.166 1.604L9.499 9.354ZM9.476.717c.255.277.483.624.685 1.028v2.036l.558-.558c.127.448.235.927.321 1.428L9.476 6.215V.717Z" fill="#fff"/><path d="M9.476.718v5.497l1.564-1.564c.077.446.138.909.182 1.381l-.29.291h.315c.08.997.087 2.028.023 3.032H9.5l1.603 1.604c-.067.454-.151.893-.251 1.311l-1.376-1.376v4.388C9.056 15.738 8.564 16 8 16a8.187 8.187 0 0 1-1.555-.152v-6.47l-4.188 4.188a8.073 8.073 0 0 1-.716-.847l2.679-2.68.685-.685H.116a8.042 8.042 0 0 1 .06-3.031h6.245L2.393 2.295c.264-.259.545-.5.842-.72l3.21 3.209V.152A8.06 8.06 0 0 1 8 0c.564 0 1.056.262 1.476.718Z" fill="#E51D35"/></g><defs><clipPath id="a"><path fill="#fff" d="M0 16h16V0H0z"/></clipPath></defs></svg>