<svg width="16" height="16" viewBox="0 0 16 16" fill="none" xmlns="http://www.w3.org/2000/svg">
    <g clip-path="url(#clip0_3225_1184)">
        <path d="M8.00186 16.0005C12.42 16.0005 16.0015 12.419 16.0015 8.00088C16.0015 3.58279 12.42 0.0012207 8.00186 0.0012207C3.58377 0.0012207 0.00219727 3.58279 0.00219727 8.00088C0.00219727 12.419 3.58377 16.0005 8.00186 16.0005Z" fill="white"/>
        <path d="M15.5421 5.33301H10.6131C10.8272 7.04194 10.8285 8.92493 10.6172 10.636H15.5527C15.8408 9.81052 15.9992 8.92405 15.9992 8.00042C15.9993 7.06467 15.8372 6.16733 15.5421 5.33301Z" fill="#2D50BA"/>
        <path d="M10.6138 5.33253H15.5427C15.542 5.33 15.5412 5.32787 15.5402 5.32557C14.5164 2.43866 11.8827 0.314661 8.71837 0.0327148C9.94303 0.703953 10.3007 2.83062 10.6138 5.33253Z" fill="#E6E6E6"/>
        <path d="M8.71814 15.9669C11.8881 15.6844 14.5255 13.5531 15.5454 10.6585C15.548 10.6508 15.5503 10.6432 15.5531 10.6357H10.6175C10.3069 13.1512 9.9477 15.2929 8.71814 15.9669Z" fill="#DE2319"/>
        <path d="M0 8.00018C0 8.92394 0.158656 9.81028 0.446512 10.6357H11.0296C11.2411 8.92455 11.2396 7.0417 11.0257 5.33276H0.457153C0.162067 6.16711 0 7.06446 0 8.00018Z" fill="#395DCD"/>
        <path d="M0.459305 5.32496C0.458562 5.32722 0.457785 5.32938 0.456772 5.33191H11.0254C10.7121 2.82997 9.94257 0.703338 8.71808 0.0320999C8.48123 0.0111237 8.24174 -0.000732421 7.99948 -0.000732421C4.51936 -0.0007662 1.5599 2.22187 0.459305 5.32496Z" fill="#F0F0F0"/>
        <path d="M11.0295 10.6355H0.446426C0.449095 10.643 0.451594 10.6505 0.454128 10.6582C1.55033 13.7693 4.51405 15.9998 7.99975 15.9998C8.24204 15.9998 8.48152 15.9879 8.71834 15.9667C9.94803 15.2926 10.7189 13.151 11.0295 10.6355Z" fill="#E83631"/>
    </g>
    <defs>
        <clipPath id="clip0_3225_1184">
            <rect width="16" height="16" fill="white"/>
        </clipPath>
    </defs>
</svg>
